<?xml version="1.0" encoding="UTF-8" standalone="no"?>
<!-- Created with Inkscape (http://www.inkscape.org/) -->

<svg
   xmlns:dc="http://purl.org/dc/elements/1.1/"
   xmlns:cc="http://creativecommons.org/ns#"
   xmlns:rdf="http://www.w3.org/1999/02/22-rdf-syntax-ns#"
   xmlns:svg="http://www.w3.org/2000/svg"
   xmlns="http://www.w3.org/2000/svg"
   version="1.2"
   width="500"
   height="500"
   id="svg2">
  <defs
     id="defs4" />
  <metadata
     id="metadata7">
    <rdf:RDF>
      <cc:Work
         rdf:about="">
        <dc:format>image/svg+xml</dc:format>
        <dc:type
           rdf:resource="http://purl.org/dc/dcmitype/StillImage" />
        <dc:title></dc:title>
      </cc:Work>
    </rdf:RDF>
  </metadata>
  <g
     transform="translate(0,-552.36218)"
     id="layer1">
    <g
       transform="matrix(1.0058508,0,0,1.0058508,-139.40796,270.62131)"
       id="g3937">
      <path
         d="m 614.28572,488.79074 a 236.42857,236.42857 0 1 1 -472.85715,0 236.42857,236.42857 0 1 1 472.85715,0 z"
         transform="matrix(1.0512511,0,0,1.0512511,-10.079892,14.806065)"
         id="path3058"
         style="fill:#097bbb;fill-opacity:1;stroke:none" />
      <path
         d="m 583.86816,530.11334 a 185.86807,185.86807 0 1 1 -371.73614,0 185.86807,185.86807 0 1 1 371.73614,0 z"
         transform="matrix(1.0445475,0,0,1.0445475,-28.587151,-25.080697)"
         id="path3828"
         style="fill:#000000;fill-opacity:1;fill-rule:nonzero;stroke:none" />
      <g
         transform="translate(10.321691,76.105469)"
         id="flowRoot3050"
         style="font-size:72px;font-style:normal;font-weight:normal;line-height:125%;letter-spacing:0px;word-spacing:0px;fill:#ffffff;fill-opacity:1;stroke:none;font-family:Sans">
        <path
           d="m 258.84583,402.5625 c 2.1083,2.04452 3.16247,4.63202 3.1625,7.7625 -3e-5,3.13062 -1.0542,5.71812 -3.1625,7.7625 -2.10836,2.0445 -4.7278,3.06672 -7.85833,3.06667 -3.13057,5e-5 -5.75002,-1.02217 -7.85833,-3.06667 -2.10835,-2.04438 -3.16251,-4.63188 -3.1625,-7.7625 -1e-5,-3.13048 1.05415,-5.71798 3.1625,-7.7625 2.10831,-2.04437 4.72776,-3.06659 7.85833,-3.06667 3.13053,8e-5 5.74997,1.0223 7.85833,3.06667 m -4.6,11.11667 c 0.89442,-0.89438 1.34164,-2.01244 1.34167,-3.35417 -3e-5,-1.3416 -0.44725,-2.42771 -1.34167,-3.25833 -0.83058,-0.89438 -1.91669,-1.3416 -3.25833,-1.34167 -1.34169,7e-5 -2.45974,0.44729 -3.35417,1.34167 -0.83057,0.83062 -1.24585,1.91673 -1.24583,3.25833 -2e-5,1.34173 0.41526,2.45979 1.24583,3.35417 0.89443,0.83062 2.01248,1.24589 3.35417,1.24583 1.34164,6e-5 2.42775,-0.41521 3.25833,-1.24583 m 1.4375,65.07083 -8.625,0 0,-38.14167 -13.32083,6.0375 -3.25833,-7.28333 24.82083,-11.40417 0.38333,0 0,50.79167"
           id="path3904"
           style="font-size:115px;font-variant:normal;font-stretch:normal;fill:#ffffff;font-family:Arjowiggins Inuit;-inkscape-font-specification:Arjowiggins Inuit" />
        <path
           d="m 309.18529,445.1125 c -1.85283,-6.26107 -6.64449,-9.39162 -14.375,-9.39167 -7.73058,5e-5 -12.52224,3.1306 -14.375,9.39167 -0.51113,1.78892 -0.76669,4.53614 -0.76667,8.24167 l 0,25.39583 -8.625,0 0,-27.21667 c -10e-6,-3.06663 0.19166,-5.49441 0.575,-7.28333 1.0861,-5.23885 3.60971,-9.35968 7.57083,-12.3625 4.02498,-3.00273 9.23192,-4.50412 15.62084,-4.50417 6.38885,5e-5 11.56384,1.50144 15.525,4.50417 4.02495,3.00282 6.5805,7.12365 7.66666,12.3625 0.38328,1.78892 0.57495,4.2167 0.575,7.28333 l 0,27.21667 -8.625,0 0,-25.39583 c -4e-5,-3.70553 -0.2556,-6.45275 -0.76666,-8.24167"
           id="path3906"
           style="font-size:115px;font-variant:normal;font-stretch:normal;fill:#ffffff;font-family:Arjowiggins Inuit;-inkscape-font-specification:Arjowiggins Inuit" />
        <path
           d="m 343.1013,461.59583 c 1.85276,6.26113 6.64442,9.39168 14.375,9.39167 7.73052,10e-6 12.52218,-3.13054 14.375,-9.39167 0.51107,-1.78887 0.76662,-4.53609 0.76667,-8.24166 l 0,-25.39584 8.625,0 0,27.21667 c -6e-5,3.06669 -0.19172,5.49446 -0.575,7.28333 -1.08617,5.2389 -3.64172,9.35973 -7.66667,12.3625 -3.96115,3.00278 -9.13615,4.50417 -15.525,4.50417 -6.38891,0 -11.59585,-1.50139 -15.62083,-4.50417 -3.96112,-3.00277 -6.48473,-7.1236 -7.57083,-12.3625 -0.38335,-1.78887 -0.57501,-4.21664 -0.575,-7.28333 l 0,-27.21667 8.625,0 0,25.39584 c -2e-5,3.70557 0.25553,6.45279 0.76666,8.24166"
           id="path3908"
           style="font-size:115px;font-variant:normal;font-stretch:normal;fill:#ffffff;font-family:Arjowiggins Inuit;-inkscape-font-specification:Arjowiggins Inuit" />
        <path
           d="m 418.99232,402.5625 c 2.1083,2.04452 3.16246,4.63202 3.1625,7.7625 -4e-5,3.13062 -1.0542,5.71812 -3.1625,7.7625 -2.10836,2.0445 -4.72781,3.06672 -7.85834,3.06667 -3.13057,5e-5 -5.75001,-1.02217 -7.85833,-3.06667 -2.10834,-2.04438 -3.16251,-4.63188 -3.1625,-7.7625 -1e-5,-3.13048 1.05416,-5.71798 3.1625,-7.7625 2.10832,-2.04437 4.72776,-3.06659 7.85833,-3.06667 3.13053,8e-5 5.74998,1.0223 7.85834,3.06667 m -4.6,11.11667 c 0.89442,-0.89438 1.34164,-2.01244 1.34166,-3.35417 -2e-5,-1.3416 -0.44724,-2.42771 -1.34166,-3.25833 -0.83058,-0.89438 -1.91669,-1.3416 -3.25834,-1.34167 -1.34168,7e-5 -2.45974,0.44729 -3.35416,1.34167 -0.83058,0.83062 -1.24585,1.91673 -1.24584,3.25833 -10e-6,1.34173 0.41526,2.45979 1.24584,3.35417 0.89442,0.83062 2.01248,1.24589 3.35416,1.24583 1.34165,6e-5 2.42776,-0.41521 3.25834,-1.24583 m 1.4375,65.07083 -8.625,0 0,-38.14167 -13.32084,6.0375 -3.25833,-7.28333 24.82083,-11.40417 0.38334,0 0,50.79167"
           id="path3910"
           style="font-size:115px;font-variant:normal;font-stretch:normal;fill:#ffffff;font-family:Arjowiggins Inuit;-inkscape-font-specification:Arjowiggins Inuit" />
        <path
           d="m 440.48594,459.10417 0,-23.09584 -16.9625,0 0,-8.05 45.425,0 0,8.05 -19.8375,0 0,21.08334 c -3e-5,3.32224 0.35136,5.90973 1.05416,7.7625 1.5972,4.0889 5.43053,6.13334 11.5,6.13333 2.55552,10e-6 5.11107,-0.31944 7.66667,-0.95833 l 1.91667,8.05 c -3.1306,0.83055 -6.5806,1.24583 -10.35,1.24583 -9.90281,0 -16.25975,-3.80139 -19.07084,-11.40417 -0.89446,-2.49165 -1.34168,-5.43054 -1.34166,-8.81666"
           id="path3912"
           style="font-size:115px;font-variant:normal;font-stretch:normal;fill:#ffffff;font-family:Arjowiggins Inuit;-inkscape-font-specification:Arjowiggins Inuit" />
        <path
           d="m 480.42148,470.7 23,0 c 4.02497,1e-5 6.86802,-0.57499 8.52917,-1.725 1.5333,-1.0861 2.29996,-2.77915 2.3,-5.07917 -4e-5,-2.68331 -0.99032,-4.53609 -2.97083,-5.55833 -1.66115,-0.83053 -4.37642,-1.24581 -8.14584,-1.24583 l -4.79166,0 c -5.04724,2e-5 -8.84863,-0.63887 -11.40417,-1.91667 -4.79167,-2.42775 -7.1875,-6.51664 -7.1875,-12.26667 0,-5.94162 2.45972,-10.22217 7.37917,-12.84166 2.68332,-1.40551 6.32498,-2.10829 10.925,-2.10834 l 23,0 0,8.05 -23.47917,0 c -3.0028,5e-5 -5.20696,0.51116 -6.6125,1.53334 -1.53335,1.02226 -2.30001,2.68337 -2.3,4.98333 -10e-6,2.4917 0.99026,4.28059 2.97083,5.36667 1.34165,0.76669 3.57776,1.15003 6.70834,1.15 l 5.175,0 c 5.30274,3e-5 9.29579,0.63891 11.97916,1.91666 5.11107,2.4917 7.66662,6.80419 7.66667,12.9375 -5e-5,4.47224 -1.59727,8.05001 -4.79167,10.73334 -3.25837,2.74722 -8.20975,4.12083 -14.85416,4.12083 l -23.09584,0 0,-8.05"
           id="path3914"
           style="font-size:115px;font-variant:normal;font-stretch:normal;fill:#ffffff;font-family:Arjowiggins Inuit;-inkscape-font-specification:Arjowiggins Inuit" />
      </g>
      <g
         transform="translate(-2.3552753,0)"
         id="flowRoot3895"
         style="font-size:40px;font-style:normal;font-weight:normal;line-height:125%;letter-spacing:0px;word-spacing:0px;fill:#ffffff;fill-opacity:1;stroke:none;font-family:Sans">
        <path
           d="m 267.745,608.62875 c -2.08,-2.08 -3.12,-4.66666 -3.12,-7.76 0,-3.09332 1.04,-5.66665 3.12,-7.72 2.07999,-2.07998 4.66666,-3.11998 7.76,-3.12 3.09332,2e-5 5.67998,1.04002 7.76,3.12 2.07998,2.05335 3.11998,4.62668 3.12,7.72 -2e-5,3.09334 -1.04002,5.68 -3.12,7.76 -2.08002,2.05333 -4.66668,3.08 -7.76,3.08 -3.09334,0 -5.68001,-1.02667 -7.76,-3.08 m 2.64,-13.04 c -1.30667,1.38668 -1.96001,3.14668 -1.96,5.28 -1e-5,2.13334 0.65333,3.89334 1.96,5.28 1.30666,1.38667 3.01332,2.08 5.12,2.08 2.10665,0 3.81332,-0.69333 5.12,-2.08 1.30665,-1.38666 1.95998,-3.14666 1.96,-5.28 -2e-5,-2.13332 -0.65335,-3.89332 -1.96,-5.28 -1.30668,-1.38665 -3.01335,-2.07998 -5.12,-2.08 -2.10668,2e-5 -3.81334,0.69335 -5.12,2.08"
           id="path3917"
           style="font-size:48px;font-variant:normal;font-stretch:normal;fill:#ffffff;font-family:Arjowiggins Inuit;-inkscape-font-specification:Arjowiggins Inuit" />
        <path
           d="m 309.7125,601.06875 c -2e-5,3.12001 -1.10669,5.68 -3.32,7.68 -2.21335,1.97333 -5.21335,2.96 -9,2.96 -0.88001,0 -1.65334,-0.04 -2.32,-0.12 l 0,11.48 -3.6,0 0,-15.4 0.08,0 c 1.78666,0.37334 3.50666,0.56 5.16,0.56 3.11999,0 5.42665,-0.66666 6.92,-2 1.51998,-1.33333 2.27998,-3.14666 2.28,-5.44 -2e-5,-2.13332 -0.82668,-3.87999 -2.48,-5.24 -1.62668,-1.35998 -4.04001,-2.03998 -7.24,-2.04 -1.65334,2e-5 -3.37334,0.18668 -5.16,0.56 l -0.72,-3.36 c 2,-0.45331 4.05333,-0.67998 6.16,-0.68 4.23999,2e-5 7.50665,1.02669 9.8,3.08 2.29331,2.02668 3.43998,4.68001 3.44,7.96"
           id="path3919"
           style="font-size:48px;font-variant:normal;font-stretch:normal;fill:#ffffff;font-family:Arjowiggins Inuit;-inkscape-font-specification:Arjowiggins Inuit" />
        <path
           d="m 323.55,598.86875 4.48,0 0,-5.28 c -0.32002,-0.0533 -0.78668,-0.08 -1.4,-0.08 -2.98668,2e-5 -5.25334,0.72002 -6.8,2.16 -1.52001,1.41335 -2.28001,3.17335 -2.28,5.28 -1e-5,2.37334 0.85333,4.18667 2.56,5.44 1.70666,1.22667 4.15999,1.84 7.36,1.84 2.37332,0 4.81331,-0.33333 7.32,-1 l 0.8,3.36 c -2.69335,0.74667 -5.45335,1.12 -8.28,1.12 -4.18668,0 -7.49334,-0.92 -9.92,-2.76 -2.42667,-1.84 -3.64,-4.43999 -3.64,-7.8 0,-3.03999 1.12,-5.65332 3.36,-7.84 2.23999,-2.18665 5.43999,-3.27998 9.6,-3.28 1.65332,2e-5 3.29332,0.16002 4.92,0.48 l 0,11.72 -8.08,0 0,-3.36"
           id="path3921"
           style="font-size:48px;font-variant:normal;font-stretch:normal;fill:#ffffff;font-family:Arjowiggins Inuit;-inkscape-font-specification:Arjowiggins Inuit" />
        <path
           d="m 355.90125,597.42875 c -0.77335,-2.61332 -2.77335,-3.91998 -6,-3.92 -3.22668,2e-5 -5.22667,1.30668 -6,3.92 -0.21334,0.74668 -0.32001,1.89335 -0.32,3.44 l 0,10.6 -3.6,0 0,-11.36 c 0,-1.27999 0.08,-2.29332 0.24,-3.04 0.45333,-2.18665 1.50666,-3.90665 3.16,-5.16 1.67999,-1.25331 3.85332,-1.87998 6.52,-1.88 2.66665,2e-5 4.82665,0.62669 6.48,1.88 1.67998,1.25335 2.74664,2.97335 3.2,5.16 0.15998,0.74668 0.23998,1.76001 0.24,3.04 l 0,11.36 -3.6,0 0,-10.6 c -2e-5,-1.54665 -0.10669,-2.69332 -0.32,-3.44"
           id="path3923"
           style="font-size:48px;font-variant:normal;font-stretch:normal;fill:#ffffff;font-family:Arjowiggins Inuit;-inkscape-font-specification:Arjowiggins Inuit" />
        <path
           d="m 377.2175,608.10875 9.6,0 c 1.67999,0 2.86665,-0.24 3.56,-0.72 0.63998,-0.45333 0.95998,-1.15999 0.96,-2.12 -2e-5,-1.11999 -0.41335,-1.89333 -1.24,-2.32 -0.69335,-0.34666 -1.82668,-0.51999 -3.4,-0.52 l -2,0 c -2.10667,10e-6 -3.69334,-0.26666 -4.76,-0.8 -2,-1.01332 -3,-2.71999 -3,-5.12 0,-2.47998 1.02666,-4.26665 3.08,-5.36 1.11999,-0.58665 2.63999,-0.87998 4.56,-0.88 l 9.6,0 0,3.36 -9.8,0 c -1.25334,2e-5 -2.17334,0.21335 -2.76,0.64 -0.64001,0.42668 -0.96001,1.12002 -0.96,2.08 -1e-5,1.04001 0.41333,1.78668 1.24,2.24 0.55999,0.32001 1.49332,0.48001 2.8,0.48 l 2.16,0 c 2.21332,10e-6 3.87998,0.26668 5,0.8 2.13331,1.04001 3.19998,2.84001 3.2,5.4 -2e-5,1.86667 -0.66669,3.36 -2,4.48 -1.36002,1.14667 -3.42668,1.72 -6.2,1.72 l -9.64,0 0,-3.36"
           id="path3925"
           style="font-size:48px;font-variant:normal;font-stretch:normal;fill:#ffffff;font-family:Arjowiggins Inuit;-inkscape-font-specification:Arjowiggins Inuit" />
        <path
           d="m 402.08875,608.62875 c -2.08,-2.08 -3.12,-4.66666 -3.12,-7.76 0,-3.09332 1.04,-5.66665 3.12,-7.72 2.07999,-2.07998 4.66666,-3.11998 7.76,-3.12 3.09332,2e-5 5.67998,1.04002 7.76,3.12 2.07998,2.05335 3.11998,4.62668 3.12,7.72 -2e-5,3.09334 -1.04002,5.68 -3.12,7.76 -2.08002,2.05333 -4.66668,3.08 -7.76,3.08 -3.09334,0 -5.68001,-1.02667 -7.76,-3.08 m 2.64,-13.04 c -1.30667,1.38668 -1.96001,3.14668 -1.96,5.28 -1e-5,2.13334 0.65333,3.89334 1.96,5.28 1.30666,1.38667 3.01332,2.08 5.12,2.08 2.10665,0 3.81332,-0.69333 5.12,-2.08 1.30665,-1.38666 1.95998,-3.14666 1.96,-5.28 -2e-5,-2.13332 -0.65335,-3.89332 -1.96,-5.28 -1.30668,-1.38665 -3.01335,-2.07998 -5.12,-2.08 -2.10668,2e-5 -3.81334,0.69335 -5.12,2.08"
           id="path3927"
           style="font-size:48px;font-variant:normal;font-stretch:normal;fill:#ffffff;font-family:Arjowiggins Inuit;-inkscape-font-specification:Arjowiggins Inuit" />
        <path
           d="m 429.77625,604.30875 c 0.77333,2.61334 2.77332,3.92 6,3.92 3.22665,0 5.22665,-1.30666 6,-3.92 0.21331,-0.74666 0.31998,-1.89332 0.32,-3.44 l 0,-10.6 3.6,0 0,11.36 c -2e-5,1.28001 -0.08,2.29334 -0.24,3.04 -0.45336,2.18667 -1.52002,3.90667 -3.2,5.16 -1.65335,1.25333 -3.81335,1.88 -6.48,1.88 -2.66668,0 -4.84001,-0.62667 -6.52,-1.88 -1.65334,-1.25333 -2.70667,-2.97333 -3.16,-5.16 -0.16,-0.74666 -0.24,-1.75999 -0.24,-3.04 l 0,-11.36 3.6,0 0,10.6 c -1e-5,1.54668 0.10666,2.69334 0.32,3.44"
           id="path3929"
           style="font-size:48px;font-variant:normal;font-stretch:normal;fill:#ffffff;font-family:Arjowiggins Inuit;-inkscape-font-specification:Arjowiggins Inuit" />
        <path
           d="m 462.6125,607.18875 4.6,4.28 -4.88,0 -11.44,-10.72 0,-0.16 8.2,0 c 1.57332,10e-6 2.74665,-0.34666 3.52,-1.04 0.69332,-0.66665 1.03999,-1.50665 1.04,-2.52 -10e-6,-1.25332 -0.44001,-2.17332 -1.32,-2.76 -0.61335,-0.42665 -1.69335,-0.63998 -3.24,-0.64 l -8.28,0 0,-3.36 8.4,0 c 2.29332,2e-5 4.07999,0.41335 5.36,1.24 1.91998,1.25335 2.87998,3.09335 2.88,5.52 -2e-5,1.89335 -0.70668,3.46668 -2.12,4.72 -1.41335,1.25334 -3.30668,1.88001 -5.68,1.88 -0.50668,1e-5 -0.88001,-0.0267 -1.12,-0.08 l 0,0.08 c 0.63999,0.45334 1.99999,1.64001 4.08,3.56"
           id="path3931"
           style="font-size:48px;font-variant:normal;font-stretch:normal;fill:#ffffff;font-family:Arjowiggins Inuit;-inkscape-font-specification:Arjowiggins Inuit" />
        <path
           d="m 471.8125,600.94875 c 0,-2.95999 1,-5.51998 3,-7.68 2.02666,-2.15998 4.94666,-3.23998 8.76,-3.24 1.83998,2e-5 3.63998,0.24002 5.4,0.72 l -0.8,3.36 c -1.46668,-0.39998 -2.93335,-0.59998 -4.4,-0.6 -2.74668,2e-5 -4.80001,0.74668 -6.16,2.24 -1.33334,1.46668 -2.00001,3.20001 -2,5.2 -1e-5,2.00001 0.63999,3.72001 1.92,5.16 1.30666,1.41334 3.34666,2.12 6.12,2.12 1.54665,0 3.05332,-0.2 4.52,-0.6 l 0.8,3.36 c -1.57335,0.48 -3.32002,0.72 -5.24,0.72 -3.97334,0 -6.96001,-1.04 -8.96,-3.12 -1.97334,-2.10666 -2.96,-4.65333 -2.96,-7.64"
           id="path3933"
           style="font-size:48px;font-variant:normal;font-stretch:normal;fill:#ffffff;font-family:Arjowiggins Inuit;-inkscape-font-specification:Arjowiggins Inuit" />
        <path
           d="m 502.33125,598.86875 4.48,0 0,-5.28 c -0.32002,-0.0533 -0.78668,-0.08 -1.4,-0.08 -2.98668,2e-5 -5.25334,0.72002 -6.8,2.16 -1.52001,1.41335 -2.28001,3.17335 -2.28,5.28 -1e-5,2.37334 0.85333,4.18667 2.56,5.44 1.70666,1.22667 4.15999,1.84 7.36,1.84 2.37332,0 4.81331,-0.33333 7.32,-1 l 0.8,3.36 c -2.69335,0.74667 -5.45335,1.12 -8.28,1.12 -4.18668,0 -7.49334,-0.92 -9.92,-2.76 -2.42667,-1.84 -3.64,-4.43999 -3.64,-7.8 0,-3.03999 1.12,-5.65332 3.36,-7.84 2.23999,-2.18665 5.43999,-3.27998 9.6,-3.28 1.65332,2e-5 3.29332,0.16002 4.92,0.48 l 0,11.72 -8.08,0 0,-3.36"
           id="path3935"
           style="font-size:48px;font-variant:normal;font-stretch:normal;fill:#ffffff;font-family:Arjowiggins Inuit;-inkscape-font-specification:Arjowiggins Inuit" />
      </g>
    </g>
  </g>
</svg>
